<svg width="48" height="47" viewBox="0 0 48 47" fill="none" xmlns="http://www.w3.org/2000/svg">
<path d="M32.833 38.3388L1.83613 16.9572C-1.30502 14.7905 -0.237234 10.2792 3.6797 9.21835L36.6238 0.276962C38.0396 -0.23393 39.615 -0.0302792 40.8544 0.823862C42.0938 1.678 42.8449 3.07768 42.8715 4.58265L40.9191 34.9039C40.6876 38.5029 35.9741 40.5055 32.833 38.3388Z" fill="url(#paint0_linear_1_187)"/>
<path d="M23.0019 43.617L4.74073 7.90502C3.88963 6.23926 4.04352 4.2371 5.13917 2.72096C6.23483 1.20483 8.08753 0.430337 9.93624 0.715626L43.7788 5.93878C45.3594 6.18275 46.7267 7.17081 47.4545 8.59492C48.1823 10.019 48.182 11.706 47.4538 13.1299L31.8638 43.6188C31.0103 45.2796 29.2997 46.3236 27.4323 46.3233C25.565 46.3229 23.8547 45.2782 23.0019 43.617Z" fill="url(#paint1_linear_1_187)"/>
<path d="M42.7885 5.7852L25.9183 3.1814L5.20532 8.8054L13.4729 24.9794L32.8329 38.3388C33.26 38.6302 33.7299 38.8534 34.2255 39.0005L41.5791 24.62L42.7885 5.7852Z" fill="#001A49"/>
<defs>
<linearGradient id="paint0_linear_1_187" x1="22.1879" y1="47.6876" x2="41.5509" y2="18.2569" gradientUnits="userSpaceOnUse">
<stop stop-color="#FFD7A9"/>
<stop offset="1" stop-color="#FFAE70"/>
</linearGradient>
<linearGradient id="paint1_linear_1_187" x1="28.8953" y1="57.1188" x2="59.865" y2="26.4712" gradientUnits="userSpaceOnUse">
<stop stop-color="#CD10FF"/>
<stop offset="1" stop-color="#9F06FF"/>
</linearGradient>
</defs>
</svg>
