<svg width="42" height="41" viewBox="0 0 42 41" fill="none" xmlns="http://www.w3.org/2000/svg">
<path d="M28.615 33.717L2.03726 15.3837C-0.656078 13.5259 0.259478 9.65777 3.618 8.74814L31.8654 1.08147C33.0794 0.643414 34.4302 0.818032 35.4929 1.5504C36.5556 2.28277 37.1996 3.4829 37.2224 4.77332L35.5484 30.7718C35.3498 33.8578 31.3084 35.5748 28.615 33.717Z" fill="url(#paint0_linear_1_24)"/>
<path d="M20.1854 38.243L4.52765 7.62223C3.79789 6.19395 3.92984 4.47722 4.86929 3.17724C5.80874 1.87725 7.39731 1.21317 8.98246 1.45779L38.0002 5.93631C39.3555 6.14549 40.5279 6.99269 41.1519 8.21378C41.776 9.43487 41.7758 10.8813 41.1514 12.1022L27.7839 38.2445C27.0521 39.6685 25.5853 40.5637 23.9842 40.5634C22.3831 40.5631 20.9167 39.6673 20.1854 38.243Z" fill="url(#paint1_linear_1_24)"/>
<path d="M37.1513 5.80437L22.6861 3.57178L4.92615 8.394L12.015 22.2621L28.615 33.717C28.9813 33.9668 29.3841 34.1582 29.8091 34.2844L36.1143 21.954L37.1513 5.80437Z" fill="#001A49"/>
<defs>
<linearGradient id="paint0_linear_1_24" x1="19.4876" y1="41.733" x2="36.0901" y2="16.4981" gradientUnits="userSpaceOnUse">
<stop stop-color="#FFD7A9"/>
<stop offset="1" stop-color="#FFAE70"/>
</linearGradient>
<linearGradient id="paint1_linear_1_24" x1="25.2386" y1="49.8199" x2="51.7932" y2="23.5415" gradientUnits="userSpaceOnUse">
<stop stop-color="#CD10FF"/>
<stop offset="1" stop-color="#9F06FF"/>
</linearGradient>
</defs>
</svg>
